<?xml version="1.0" encoding="UTF-8" standalone="no"?>
<svg
   xmlns:dc="http://purl.org/dc/elements/1.1/"
   xmlns:cc="http://creativecommons.org/ns#"
   xmlns:rdf="http://www.w3.org/1999/02/22-rdf-syntax-ns#"
   xmlns:svg="http://www.w3.org/2000/svg"
   xmlns="http://www.w3.org/2000/svg"
   viewBox="0 0 93.929733 51.118267"
   height="51.118267"
   width="93.929733"
   xml:space="preserve"
   id="svg2"
   version="1.1"><metadata
     id="metadata8"><rdf:RDF><cc:Work
         rdf:about=""><dc:format>image/svg+xml</dc:format><dc:type
           rdf:resource="http://purl.org/dc/dcmitype/StillImage" /></cc:Work></rdf:RDF></metadata><defs
     id="defs6"><clipPath
       id="clipPath18"
       clipPathUnits="userSpaceOnUse"><path
         id="path16"
         d="M 0,38.339 H 70.447 V 0 H 0 Z" /></clipPath></defs><g
     transform="matrix(1.3333333,0,0,-1.3333333,0,51.118267)"
     id="g10"><g
       id="g12"><g
         clip-path="url(#clipPath18)"
         id="g14"><g
           transform="translate(66.4509,32.12)"
           id="g20"><path
             id="path22"
             style="fill:#ffffff;fill-opacity:1;fill-rule:nonzero;stroke:none"
             d="m 0,0 h -17.619 -0.915 -17.538 v 0.998 h 17.62 0.833 H 0 Z m -17.619,2.828 h -0.833 -18.452 V 1.082 0.998 0 -1.829 -22.616 c -0.554,0.524 -1.478,0.689 -2.555,0.689 -1.229,0 -2.706,-0.614 -3.875,-1.567 -1.169,-0.923 -2.03,-2.185 -2.03,-3.447 0,-0.8 0.338,-1.476 0.923,-1.938 0.554,-0.461 1.354,-0.738 2.215,-0.738 1.353,0 2.892,0.554 4.06,1.476 1.201,0.924 2.094,2.162 2.094,3.546 v 22.766 h 17.538 0.082 v -20.787 c -0.555,0.524 -1.476,0.689 -2.553,0.689 -1.231,0 -2.708,-0.614 -3.876,-1.567 -1.169,-0.923 -2.03,-2.185 -2.03,-3.447 0,-0.8 0.338,-1.476 0.922,-1.938 0.553,-0.461 1.353,-0.738 2.215,-0.738 1.353,0 2.891,0.554 4.061,1.476 1.2,0.924 2.094,2.145 2.094,3.529 V -1.829 H 0 v -20.772 c -0.554,0.524 -1.476,0.674 -2.554,0.674 -1.229,0 -2.707,-0.614 -3.875,-1.567 -1.171,-0.923 -2.031,-2.185 -2.031,-3.447 0,-0.8 0.339,-1.476 0.923,-1.938 0.554,-0.461 1.353,-0.738 2.215,-0.738 1.354,0 2.892,0.554 4.061,1.476 1.199,0.924 2.094,2.145 2.094,3.529 v 25.61 0.084 1.746 z" /></g><g
           transform="translate(47.7608,32.12)"
           id="g24"><path
             id="path26"
             style="fill:#ffffff;fill-opacity:1;fill-rule:nonzero;stroke:none"
             d="m 0,0 h -17.619 -0.915 -17.538 v 0.998 h 17.62 0.833 H 0 Z m -17.619,2.828 h -0.833 -18.452 V 1.082 0.998 0 -1.829 -22.616 c -0.554,0.524 -1.478,0.689 -2.555,0.689 -1.229,0 -2.706,-0.614 -3.875,-1.567 -1.169,-0.923 -2.03,-2.185 -2.03,-3.447 0,-0.8 0.338,-1.476 0.923,-1.938 0.554,-0.461 1.354,-0.738 2.215,-0.738 1.353,0 2.892,0.554 4.06,1.476 1.201,0.924 2.094,2.162 2.094,3.546 v 22.766 h 17.538 0.082 v -20.787 c -0.555,0.524 -1.476,0.689 -2.553,0.689 -1.231,0 -2.708,-0.614 -3.876,-1.567 -1.169,-0.923 -2.03,-2.185 -2.03,-3.447 0,-0.8 0.338,-1.476 0.922,-1.938 0.553,-0.461 1.353,-0.738 2.215,-0.738 1.353,0 2.891,0.554 4.061,1.476 1.2,0.924 2.094,2.145 2.094,3.529 V -1.829 H 0 v -20.772 c -0.554,0.524 -1.476,0.674 -2.554,0.674 -1.229,0 -2.707,-0.614 -3.875,-1.567 -1.171,-0.923 -2.031,-2.185 -2.031,-3.447 0,-0.8 0.339,-1.476 0.923,-1.938 0.554,-0.461 1.353,-0.738 2.215,-0.738 1.354,0 2.892,0.554 4.061,1.476 1.2,0.924 2.094,2.145 2.094,3.529 v 25.61 0.084 1.746 z" /></g></g></g></g></svg>